<svg xmlns="http://www.w3.org/2000/svg" version="1.1" xmlns:xlink="http://www.w3.org/1999/xlink" xmlns:svgjs="http://svgjs.dev/svgjs" viewBox="0 0 800 800" opacity="1"><defs><linearGradient x1="50%" y1="0%" x2="50%" y2="100%" id="gggyrate-grad"><stop stop-color="hsl(144, 78%, 61%)" stop-opacity="1" offset="0%"></stop><stop stop-color="hsl(187, 84%, 48%)" stop-opacity="1" offset="100%"></stop></linearGradient></defs><g stroke-width="9" stroke="url(#gggyrate-grad)" fill="none"><path d="M384.34432819592394 134.09535653432064C390.757245693615 121.13414500340693 409.24269327122875 121.13414500340693 415.6556107689198 134.09535653432064L671.1657206301043 650.4105455899894C676.9104894201708 662.0201752580938 668.4647403969944 675.6255170790378 655.5100793436065 675.6255170790378H144.48985962123726C131.5351985678493 675.6255170790378 123.08944954467307 662.0201752580938 128.83421833473938 650.4105455899894L384.34432819592394 134.09535653432064Z " transform="rotate(104, 400, 400)" opacity="0.05"></path><path d="M384.94646824540473 144.3224875499027C391.11273507010753 131.85978415479332 408.8872038947362 131.85978415479332 415.05347071943913 144.3224875499027L660.7362686628857 640.7794001034304C666.2600848071805 651.9425055535307 658.1391722848955 665.0245649967461 645.6827674258686 665.0245649967461H154.31717153897512C141.86076667994826 665.0245649967461 133.7398541576634 651.9425055535307 139.26367030195792 640.7794001034304L384.94646824540473 144.3224875499027Z " transform="rotate(100, 400, 400)" opacity="0.09"></path><path d="M385.54866933004155 154.54957278911752C391.4682854817563 142.58537752981252 408.53177555339994 142.58537752981252 414.4513917051147 154.54957278911752L650.3068777308233 631.1482088405039C655.6097412293464 641.8647900726005 647.8136652079529 654.4235671380872 635.855516543287 654.4235671380872H164.14454449186923C152.18639582720346 654.4235671380872 144.39031980580995 641.8647900726005 149.6931833043327 631.1482088405039L385.54866933004155 154.54957278911752Z " transform="rotate(96, 400, 400)" opacity="0.13"></path><path d="M386.1508093795223 164.7766732871214C391.82377485824895 153.31098616362078 408.1762861769073 153.31098616362078 413.8492516556339 164.7766732871214L639.8774257636048 621.5170328363668C644.959336616356 631.7870898504592 637.4880970958538 643.8225845382174 626.028204625549 643.8225845382174H173.97185640960714C162.5119639393024 643.8225845382174 155.04072441880032 631.7870898504592 160.1226352715513 621.5170328363668L386.1508093795223 164.7766732871214Z " transform="rotate(92, 400, 400)" opacity="0.16"></path><path d="M386.7529036526358 175.0037737851253C392.1792184583743 164.03659479742905 407.8207510240476 164.03659479742905 413.24706582978615 175.0037737851253L629.4479280200192 611.8858568322296C634.3088862269985 621.7093896283179 627.1624832073877 633.2216019383475 616.2008469314441 633.2216019383475H183.7991225509778C172.8374862750341 633.2216019383475 165.69108325542345 621.7093896283179 170.55204146240266 611.8858568322296L386.7529036526358 175.0037737851253Z " transform="rotate(88, 400, 400)" opacity="0.20"></path><path d="M387.3550589609055 185.2308742831292C392.53472309365594 174.76220343123734 407.46527690634406 174.76220343123734 412.6449410390945 185.2308742831292L619.0184913115896 602.2546808280924C623.6584968727973 611.6316894061767 616.8369303540778 622.6206193384776 606.3735502724953 622.6206193384776H193.62644972750473C183.16306964592212 622.6206193384776 176.34150312720288 611.6316894061767 180.98150868841026 602.2546808280924L387.3550589609055 185.2308742831292Z " transform="rotate(84, 400, 400)" opacity="0.24"></path><path d="M387.95719901038626 195.4579747811331C392.8902124701485 185.4878120650456 407.1097875298515 185.4878120650456 412.04280098961374 195.4579747811331L608.589039344371 592.6235048239552C613.008092259807 601.5539891840356 606.511362241979 612.0196367386078 596.5462383547574 612.0196367386078H203.4537616452426C193.48863775802107 612.0196367386078 186.9919077401932 601.5539891840356 191.41096065562886 592.6235048239552L387.95719901038626 195.4579747811331Z " transform="rotate(80, 400, 400)" opacity="0.28"></path><path d="M388.55933905986694 205.68507527913698C393.24570184664105 196.21342069885387 406.75429815335895 196.21342069885387 411.44066094013306 205.68507527913698L598.1595873771525 582.9923288198179C602.3576876468165 591.4762889618944 596.1857941298799 601.418654138738 586.7189264370195 601.418654138738H213.28107356298045C203.81420587012002 601.418654138738 197.64231235318357 591.4762889618944 201.8404126228474 582.9923288198179L388.55933905986694 205.68507527913698Z " transform="rotate(76, 400, 400)" opacity="0.32"></path><path d="M389.16146385055856 215.91217577714087C393.60117596434463 206.93902933266213 406.39879351807724 206.93902933266213 410.8385056318633 215.91217577714087L587.7301201511449 573.3611528156807C591.7072677750372 581.3985887397531 585.860210758992 590.8176715388681 576.8915992604925 590.8176715388681H223.10837022192925C214.1397587234299 590.8176715388681 208.29270170738482 581.3985887397531 212.26984933127687 573.3611528156807L389.16146385055856 215.91217577714087Z " transform="rotate(72, 400, 400)" opacity="0.35"></path><path d="M389.7636191588283 226.13927627514477C393.9566805996262 217.6646379664704 406.0433194003738 217.6646379664704 410.2363808411717 226.13927627514477L577.3006834427154 563.7299768115436C581.0568784208358 571.3208885176118 575.534657905682 580.2166889389982 567.0643026015438 580.2166889389982H232.93569739845623C224.46534209431792 580.2166889389982 218.94312157916426 571.3208885176118 222.69931655728453 563.7299768115436L389.7636191588283 226.13927627514477Z " transform="rotate(68, 400, 400)" opacity="0.39"></path><path d="M390.365759208309 236.36637677314866C394.31216997611887 228.39024660027866 405.68783002388113 228.39024660027866 409.634240791691 236.36637677314866L566.8712314754969 554.0988008074064C570.4064738078455 561.2431882954706 565.2090897935832 569.6157063391285 557.236990683806 569.6157063391285H242.7630093161941C234.79091020641687 569.6157063391285 229.59352619215457 561.2431882954706 233.12876852450307 554.0988008074064L390.365759208309 236.36637677314866Z " transform="rotate(64, 400, 400)" opacity="0.43"></path><path d="M390.96789925778967 246.59347727115255C394.6676593526114 239.11585523408692 405.3323406473886 239.11585523408692 409.03210074221033 246.59347727115255L556.4417795082784 544.467624803269C559.7560691948552 551.1654880733294 554.8835216814841 559.0147237392586 547.409678766068 559.0147237392586H252.59032123393195C245.11647831851582 559.0147237392586 240.24393080514488 551.1654880733294 243.5582204917216 544.467624803269L390.96789925778967 246.59347727115255Z " transform="rotate(60, 400, 400)" opacity="0.47"></path><path d="M391.57003930727035 256.82057776915644C395.023148729104 249.8414638678952 404.976851270896 249.8414638678952 408.42996069272965 256.82057776915644L546.0123275410597 534.8364487991319C549.1056645818649 541.0877878511881 544.5579535693853 548.4137411393888 537.5823668483301 548.4137411393888H262.4176331516698C255.44204643061477 548.4137411393888 250.89433541813526 541.0877878511881 253.9876724589402 534.8364487991319L391.57003930727035 256.82057776915644Z " transform="rotate(56, 400, 400)" opacity="0.51"></path><path d="M392.17217935675103 267.04767826716034C395.37863810559656 260.5670725017035 404.62136189440344 260.5670725017035 407.82782064324897 267.04767826716034L535.5828755738412 525.2052727949947C538.4552599688745 531.0100876290469 534.2323854572862 537.8127585395189 527.7550549305923 537.8127585395189H272.24494506940766C265.7676145427137 537.8127585395189 261.54474003112557 531.0100876290469 264.41712442615875 525.2052727949947L392.17217935675103 267.04767826716034Z " transform="rotate(52, 400, 400)" opacity="0.54"></path><path d="M392.7743194062317 277.27478639455876C395.7341274820891 271.2926887649063 404.2658725179109 271.2926887649063 407.2256805937683 277.27478639455876L525.1534236066226 515.574104420252C527.8048553558841 520.9323950363002 523.9068173451874 527.2117835690435 517.9277430128544 527.2117835690435H282.0722569871456C276.09318265481267 527.2117835690435 272.19514464411594 520.9323950363002 274.8465763933773 515.574104420252L392.7743194062317 277.27478639455876Z " transform="rotate(48, 400, 400)" opacity="0.58"></path><path d="M393.3764594557124 287.50188689256265C396.0896168585817 282.01829739871454 403.9103831414183 282.01829739871454 406.6235405442876 287.50188689256265L514.7239716394041 505.9429284161148C517.1544507428938 510.85469481415896 513.5812492330883 516.6108009691737 508.10043109511656 516.6108009691737H291.89956890488344C286.4187507669116 516.6108009691737 282.84554925710626 510.85469481415896 285.27602836059583 505.9429284161148L393.3764594557124 287.50188689256265Z " transform="rotate(44, 400, 400)" opacity="0.62"></path><path d="M393.97859950519313 297.7289950199611C396.44510623507426 292.7439136619173 403.55489376492574 292.7439136619173 406.02140049480687 297.7289950199611L504.2945196721855 496.3117600413721C506.5040461299035 500.7770022214123 503.2556811209895 506.00982599869843 498.2731191773787 506.00982599869843H301.7268808226213C296.74431887901056 506.00982599869843 293.4959538700966 500.7770022214123 295.7054803278144 496.3117600413721L393.97859950519313 297.7289950199611Z " transform="rotate(40, 400, 400)" opacity="0.66"></path><path d="M394.5807395546738 307.95608788857044C396.80059561156685 303.46951466633107 403.19940438843315 303.46951466633107 405.4192604453262 307.95608788857044L493.865067704967 486.68057640784036C495.8536415169131 490.69929436987655 492.93011300889054 495.40883576943406 488.4458072596408 495.40883576943406H311.55419274035916C307.0698869911095 495.40883576943406 304.14635848308694 490.69929436987655 306.13493229503297 486.68057640784036L394.5807395546738 307.95608788857044Z " transform="rotate(36, 400, 400)" opacity="0.70"></path><path d="M395.1828796041545 318.18319601596886C397.15608498805943 314.1951309295339 402.84391501194057 314.1951309295339 404.8171203958455 318.18319601596886L483.43561573774844 477.04940803309773C485.20323690392274 480.62160177712985 482.6045448967916 484.80786079895876 478.618495341903 484.80786079895876H321.381504658097C317.39545510320846 484.80786079895876 314.79676309607726 480.62160177712985 316.5643842622515 477.04940803309773L395.1828796041545 318.18319601596886Z " transform="rotate(32, 400, 400)" opacity="0.73"></path><path d="M395.7850196536352 328.4102888845782C397.51157436455196 324.9207319339476 402.48842563544804 324.9207319339476 404.2149803463648 328.4102888845782L473.00616377052984 467.41822439956593C474.55283229093243 470.54389392559403 472.27897678469265 474.2068705696944 468.79118342416507 474.2068705696944H331.20881657583493C327.72102321530735 474.2068705696944 325.4471677090676 470.54389392559403 326.9938362294701 467.41822439956593L395.7850196536352 328.4102888845782Z " transform="rotate(28, 400, 400)" opacity="0.77"></path><path d="M396.38715970311586 338.63739701197665C397.86706374104455 335.64634819715036 402.13293625895545 335.64634819715036 403.61284029688414 338.63739701197665L462.5767118033113 457.78705602482324C463.90242767794206 460.4662013328474 461.9534086725937 463.605895599219 458.9638715064272 463.605895599219H341.0361284935728C338.0465913274063 463.605895599219 336.09757232205794 460.4662013328474 337.42328819668865 457.78705602482324L396.38715970311586 338.63739701197665Z " transform="rotate(24, 400, 400)" opacity="0.81"></path><path d="M396.98929975259654 348.864489880586C398.22255311753713 346.3719492015641 401.77744688246287 346.3719492015641 403.01070024740346 348.864489880586L452.14725983609276 448.1558723912915C453.25202306495174 450.3884934813116 451.62784056049475 453.0049053699547 449.13655958868935 453.0049053699547H350.86344041131065C348.37215943950525 453.0049053699547 346.7479769350483 450.3884934813116 347.8527401639072 448.1558723912915L396.98929975259654 348.864489880586Z " transform="rotate(20, 400, 400)" opacity="0.85"></path><path d="M397.5914398020773 359.09159800798443C398.5780424940297 357.09756546476694 401.4219575059703 357.09756546476694 402.4085601979227 359.09159800798443L441.7178078688742 438.52470401654887C442.6016184519614 440.3108008885649 441.3022724483958 442.40393039947935 439.3092476709515 442.40393039947935H360.6907523290485C358.6977275516042 442.40393039947935 357.3983815480386 440.3108008885649 358.2821921311258 438.52470401654887L397.5914398020773 359.09159800798443Z " transform="rotate(16, 400, 400)" opacity="0.89"></path><path d="M398.19357985155796 369.3186985059883C398.9335318705223 367.82317409857524 401.0664681294777 367.82317409857524 401.80642014844204 369.3186985059883L431.2883559016557 428.89352801241165C431.95121383897106 430.2331006664237 430.97670433629685 431.8029477996095 429.48193575321363 431.8029477996095H370.51806424678637C369.02329566370315 431.8029477996095 368.048786161029 430.2331006664237 368.7116440983443 428.89352801241165L398.19357985155796 369.3186985059883Z " transform="rotate(12, 400, 400)" opacity="0.92"></path><path d="M398.79571990103864 379.5457990039922C399.28902124701483 378.5487827323835 400.71097875298517 378.5487827323835 401.20428009896136 379.5457990039922L420.8589039344371 419.26235200827443C421.3008092259807 420.15540044428246 420.6511362241979 421.2019651997397 419.6546238354757 421.2019651997397H380.3453761645243C379.3488637758021 421.2019651997397 378.6991907740193 420.15540044428246 379.14109606556286 419.26235200827443L398.79571990103864 379.5457990039922Z " transform="rotate(8, 400, 400)" opacity="0.96"></path><path d="M399.3978599505193 389.7728995019961C399.6445106235074 389.2743913661917 400.3554893764926 389.2743913661917 400.6021400494807 389.7728995019961L410.42945196721854 409.6311760041372C410.65040461299037 410.07770022214123 410.32556811209895 410.60098259986984 409.82731191773786 410.60098259986984H390.17268808226214C389.67443188790105 410.60098259986984 389.3495953870097 410.07770022214123 389.57054803278146 409.6311760041372L399.3978599505193 389.7728995019961Z " transform="rotate(4, 400, 400)" opacity="1.00"></path></g></svg>