<svg xmlns="http://www.w3.org/2000/svg" xmlns:xlink="http://www.w3.org/1999/xlink" viewBox="0 0 2560 2560"><defs><style>.cls-1{fill:none;}.cls-2{stroke:#1e3e65;fill:url(#linear-gradient);}.cls-2,.cls-3{stroke-miterlimit:10;}.cls-3,.cls-4{fill:#fff;}.cls-3{stroke:#fff;stroke-width:20px;opacity:0.1;}.cls-5{clip-path:url(#clip-path);}</style><linearGradient id="linear-gradient" x1="1281" y1="2560" x2="1281" gradientUnits="userSpaceOnUse"><stop offset="0" stop-color="#289bbb"/><stop offset="0.28" stop-color="#2897b8"/><stop offset="0.77" stop-color="#21577d"/><stop offset="1" stop-color="#1e3e65"/></linearGradient><clipPath id="clip-path"><polygon class="cls-1" points="-79 1652 615 905 863 1157 1213 960 1304 963 1805 1375 2027 1037 2171 1227 2439 893 2541 741 2619 705 2619 2609 -123 2587 -57 1487 -79 1652"/></clipPath></defs><title>Artboard 1</title><g id="Layer_1" data-name="Layer 1"><rect class="cls-2" x="1" width="2560" height="2560" rx="198.73" ry="198.73"/></g><g id="Layer_4" data-name="Layer 4"><line class="cls-3" x1="579" y1="245" x2="579" y2="2321"/><line class="cls-3" x1="879" y1="245" x2="879" y2="2321"/><line class="cls-3" x1="1179" y1="245" x2="1179" y2="2321"/><line class="cls-3" x1="1479" y1="245" x2="1479" y2="2321"/><line class="cls-3" x1="1779" y1="245" x2="1779" y2="2321"/><line class="cls-3" x1="2079" y1="245" x2="2079" y2="2321"/></g><g id="Layer_2" data-name="Layer 2"><polygon class="cls-4" points="1312 936 1809 1339 2033 997 2169 1183 2562 673 2562 763 2170 1268 2036 1062 1817 1409 1287 959 1312 936"/><polygon class="cls-4" points="601 747 855 1059 1356 642 1274 567 1601 451 1557 840 1469 750 860 1280 611 964 0 1652 0 1389 601 747"/></g><g id="Layer_5" data-name="Layer 5"><g class="cls-5"><line class="cls-3" y1="2357" x2="2560" y2="2357"/><line class="cls-3" y1="2327" x2="2560" y2="2327"/><line class="cls-3" y1="2297" x2="2560" y2="2297"/><line class="cls-3" y1="2267" x2="2560" y2="2267"/><line class="cls-3" y1="2237" x2="2560" y2="2237"/><line class="cls-3" y1="2207" x2="2560" y2="2207"/><line class="cls-3" y1="2177" x2="2560" y2="2177"/><line class="cls-3" y1="2147" x2="2560" y2="2147"/><line class="cls-3" y1="2117" x2="2560" y2="2117"/><line class="cls-3" y1="2087" x2="2560" y2="2087"/><line class="cls-3" y1="2057" x2="2560" y2="2057"/><line class="cls-3" y1="2027" x2="2560" y2="2027"/><line class="cls-3" y1="1997" x2="2560" y2="1997"/><line class="cls-3" y1="1967" x2="2560" y2="1967"/><line class="cls-3" y1="1937" x2="2560" y2="1937"/><line class="cls-3" y1="1907" x2="2560" y2="1907"/><line class="cls-3" y1="1877" x2="2560" y2="1877"/><line class="cls-3" y1="1847" x2="2560" y2="1847"/><line class="cls-3" y1="1817" x2="2560" y2="1817"/><line class="cls-3" y1="1787" x2="2560" y2="1787"/><line class="cls-3" y1="1757" x2="2560" y2="1757"/><line class="cls-3" y1="1727" x2="2560" y2="1727"/><line class="cls-3" y1="1697" x2="2560" y2="1697"/><line class="cls-3" y1="1667" x2="2560" y2="1667"/><line class="cls-3" y1="1637" x2="2560" y2="1637"/><line class="cls-3" y1="1607" x2="2560" y2="1607"/><line class="cls-3" y1="1577" x2="2560" y2="1577"/><line class="cls-3" y1="1547" x2="2560" y2="1547"/><line class="cls-3" y1="1517" x2="2560" y2="1517"/><line class="cls-3" y1="1487" x2="2560" y2="1487"/><line class="cls-3" y1="1457" x2="2560" y2="1457"/><line class="cls-3" y1="1427" x2="2560" y2="1427"/><line class="cls-3" y1="1397" x2="2560" y2="1397"/><line class="cls-3" y1="1367" x2="2560" y2="1367"/><line class="cls-3" y1="1337" x2="2560" y2="1337"/><line class="cls-3" y1="1307" x2="2560" y2="1307"/><line class="cls-3" y1="1277" x2="2560" y2="1277"/><line class="cls-3" y1="1247" x2="2560" y2="1247"/><line class="cls-3" y1="1217" x2="2560" y2="1217"/><line class="cls-3" y1="1187" x2="2560" y2="1187"/><line class="cls-3" y1="1157" x2="2560" y2="1157"/><line class="cls-3" y1="1127" x2="2560" y2="1127"/><line class="cls-3" y1="1097" x2="2560" y2="1097"/><line class="cls-3" y1="1067" x2="2560" y2="1067"/><line class="cls-3" y1="1037" x2="2560" y2="1037"/><line class="cls-3" y1="1007" x2="2560" y2="1007"/><line class="cls-3" y1="977" x2="2560" y2="977"/><line class="cls-3" y1="947" x2="2560" y2="947"/><line class="cls-3" y1="917" x2="2560" y2="917"/><line class="cls-3" y1="887" x2="2560" y2="887"/><line class="cls-3" y1="857" x2="2560" y2="857"/><line class="cls-3" y1="827" x2="2560" y2="827"/><line class="cls-3" y1="797" x2="2560" y2="797"/><line class="cls-3" y1="767" x2="2560" y2="767"/><line class="cls-3" y1="2387" x2="2560" y2="2387"/></g></g></svg>